<svg width="146" height="146" viewBox="0 0 146 146" fill="none" xmlns="http://www.w3.org/2000/svg">
<g filter="url(#filter0_d)">
<path d="M5 60L66 0.5H141V12.5H129.044L16 125.96V137H5V60Z" fill="#00B359"/>
<path d="M5 137V60L66 0.5H141M5 137L16 125.96M5 137H16V125.96M141 0.5V12.5H129.044M141 0.5L129.044 12.5M16 125.96L129.044 12.5" stroke="#00B359"/>
</g>
<path d="M141 0L129.5 12.5H141V0Z" fill="#007631"/>
<path d="M16.5 126L5 137H16.5V126Z" fill="#007631"/>
<path d="M19.0767 88.9182L10.5307 80.3721L13.5242 77.3787C14.5611 76.3417 15.5472 75.7548 16.4824 75.6178C17.4137 75.4769 18.2628 75.79 19.0298 76.5569C19.4485 76.9756 19.7107 77.453 19.8163 77.9891C19.918 78.5213 19.8515 79.0535 19.6167 79.5856C20.1646 79.2569 20.73 79.1337 21.313 79.2158C21.9 79.2941 22.4341 79.5739 22.9154 80.0552C23.7372 80.8769 24.0972 81.7613 23.9954 82.7082C23.8937 83.6552 23.3615 84.6178 22.3989 85.596L19.0767 88.9182ZM17.1163 83.436L19.4231 85.7428L20.9315 84.2343C21.3463 83.8195 21.5713 83.3989 21.6065 82.9723C21.6417 82.538 21.4852 82.1467 21.137 81.7984C20.3544 81.0158 19.5522 81.0237 18.7304 81.8219L17.1163 83.436ZM15.872 82.1917L17.175 80.8887C18.0476 79.9848 18.1376 79.1865 17.445 78.4939C17.0576 78.1065 16.6663 77.9422 16.2711 78.0008C15.8759 78.0517 15.4357 78.3198 14.9505 78.805L13.7179 80.0376L15.872 82.1917ZM28.1921 72.3954L24.8113 75.7763L27.1004 78.0654L31.0682 74.0976L32.4828 75.5122L26.7541 81.2408L18.2081 72.6948L23.925 66.9779L25.3513 68.4042L21.3952 72.3602L23.4319 74.397L26.8128 71.0161L28.1921 72.3954ZM35.7052 67.8055C35.3725 67.4729 35.0008 67.3359 34.5899 67.3946C34.1752 67.4494 33.5647 67.6842 32.7586 68.0989C31.9486 68.5098 31.2697 68.7974 30.7219 68.9618C29.2271 69.4078 28.0356 69.1868 27.1474 68.2985C26.6856 67.8368 26.4039 67.2968 26.3022 66.6785C26.2004 66.0524 26.2904 65.395 26.5721 64.7063C26.8578 64.0137 27.3039 63.3642 27.9104 62.7577C28.5208 62.1472 29.1763 61.7148 29.8767 61.4605C30.5732 61.2022 31.2541 61.1435 31.9193 61.2844C32.5884 61.4214 33.1793 61.7461 33.6919 62.2587L31.931 64.0196C31.5397 63.6283 31.1132 63.4483 30.6515 63.4796C30.1858 63.507 29.73 63.7437 29.2839 64.1898C28.8534 64.6203 28.6108 65.0468 28.5561 65.4694C28.4974 65.8881 28.6167 66.2461 28.9141 66.5435C29.1919 66.8213 29.5637 66.9152 30.0293 66.8252C30.4989 66.7313 31.0878 66.4946 31.796 66.115C33.0991 65.4146 34.2025 65.0585 35.1065 65.0468C36.0104 65.035 36.7949 65.3618 37.4601 66.027C38.1997 66.7666 38.501 67.6274 38.3641 68.6096C38.2232 69.5878 37.6793 70.5504 36.7323 71.4974C36.0749 72.1548 35.3569 72.6341 34.5782 72.9354C33.7956 73.2328 33.0521 73.315 32.3478 73.182C31.6473 73.045 31.0213 72.7007 30.4695 72.1489L32.2363 70.3822C33.1793 71.3252 34.2143 71.2333 35.3412 70.1063C35.7599 69.6876 36.0025 69.2768 36.0691 68.8737C36.1317 68.4668 36.0104 68.1107 35.7052 67.8055ZM40.2247 53.5307L37.6069 56.1486L44.7266 63.2683L42.9658 65.0292L35.846 57.9094L33.2634 60.492L31.8371 59.0657L38.7984 52.1044L40.2247 53.5307ZM53.1846 50.326C52.852 49.9934 52.4803 49.8564 52.0694 49.9151C51.6546 49.9699 51.0442 50.2047 50.2381 50.6195C49.4281 51.0303 48.7492 51.3179 48.2014 51.4823C46.7066 51.9284 45.5151 51.7073 44.6268 50.819C44.1651 50.3573 43.8834 49.8173 43.7816 49.199C43.6799 48.5729 43.7699 47.9156 44.0516 47.2269C44.3373 46.5343 44.7834 45.8847 45.3899 45.2782C46.0003 44.6677 46.6558 44.2354 47.3562 43.981C48.0527 43.7227 48.7336 43.664 49.3988 43.8049C50.0679 43.9419 50.6588 44.2667 51.1714 44.7793L49.4105 46.5401C49.0192 46.1488 48.5927 45.9688 48.131 46.0001C47.6653 46.0275 47.2094 46.2643 46.7634 46.7103C46.3329 47.1408 46.0903 47.5673 46.0355 47.9899C45.9768 48.4086 46.0962 48.7666 46.3936 49.064C46.6714 49.3418 47.0431 49.4358 47.5088 49.3458C47.9784 49.2518 48.5673 49.0151 49.2755 48.6355C50.5786 47.9351 51.682 47.579 52.5859 47.5673C53.4899 47.5556 54.2744 47.8823 54.9396 48.5475C55.6792 49.2871 55.9805 50.1479 55.8435 51.1301C55.7027 52.1084 55.1588 53.071 54.2118 54.0179C53.5544 54.6753 52.8364 55.1546 52.0577 55.456C51.2751 55.7533 50.5316 55.8355 49.8273 55.7025C49.1268 55.5655 48.5007 55.2212 47.949 54.6694L49.7157 52.9027C50.6588 53.8457 51.6938 53.7538 52.8207 52.6268C53.2394 52.2081 53.482 51.7973 53.5485 51.3942C53.6112 50.9873 53.4899 50.6312 53.1846 50.326ZM59.829 40.7586L56.4481 44.1395L58.7372 46.4286L62.705 42.4608L64.1196 43.8754L58.3909 49.604L49.8449 41.058L55.5618 35.341L56.9881 36.7673L53.032 40.7234L55.0688 42.7601L58.4496 39.3793L59.829 40.7586ZM65.4989 39.6669L69.2378 35.928L70.6524 37.3426L65.1526 42.8423L56.6066 34.2963L58.3674 32.5354L65.4989 39.6669ZM72.0141 33.1517L75.753 29.4128L77.1676 30.8274L71.6678 36.3271L63.1218 27.7811L64.8826 26.0202L72.0141 33.1517ZM79.621 20.9665L76.2402 24.3474L78.5293 26.6365L82.4971 22.6687L83.9117 24.0833L78.183 29.8119L69.637 21.2659L75.3539 15.549L76.7802 16.9753L72.8241 20.9313L74.8608 22.9681L78.2417 19.5872L79.621 20.9665ZM84.9799 16.7581L83.5771 18.1609L86.7056 21.2894L84.9447 23.0502L76.3987 14.5042L79.5741 11.3288C80.5836 10.3192 81.5873 9.76551 82.5852 9.66768C83.583 9.56986 84.4928 9.93181 85.3145 10.7535C85.8975 11.3366 86.2575 11.9509 86.3945 12.5966C86.5314 13.2344 86.4591 13.9251 86.1773 14.6685L91.5186 16.312L91.6008 16.3942L89.7108 18.2842L84.9799 16.7581ZM82.1508 16.7346L83.5712 15.3142C84.0134 14.872 84.2443 14.4181 84.2638 13.9524C84.2795 13.4829 84.0897 13.0505 83.6945 12.6553C83.2915 12.2522 82.8591 12.0507 82.3973 12.0507C81.9395 12.0468 81.4739 12.2816 81.0004 12.7551L79.5858 14.1696L82.1508 16.7346ZM91.6125 11.1351L90.2038 12.5438L84.0819 6.82095L85.8897 5.01314L91.6125 11.1351ZM91.8355 12.7668C92.1212 12.4811 92.4342 12.3364 92.7747 12.3325C93.119 12.3246 93.4223 12.4518 93.6845 12.714C93.9427 12.9722 94.0679 13.2735 94.0601 13.6179C94.0562 13.9583 93.9114 14.2714 93.6258 14.557C93.344 14.8387 93.031 14.9835 92.6866 14.9914C92.3462 14.9953 92.0469 14.8681 91.7886 14.6098C91.5303 14.3516 91.4032 14.0522 91.4071 13.7118C91.411 13.3635 91.5538 13.0485 91.8355 12.7668Z" fill="white"/>
<defs>
<filter id="filter0_d" x="0.5" y="0" width="145" height="145.5" filterUnits="userSpaceOnUse" color-interpolation-filters="sRGB">
<feFlood flood-opacity="0" result="BackgroundImageFix"/>
<feColorMatrix in="SourceAlpha" type="matrix" values="0 0 0 0 0 0 0 0 0 0 0 0 0 0 0 0 0 0 127 0"/>
<feOffset dy="4"/>
<feGaussianBlur stdDeviation="2"/>
<feColorMatrix type="matrix" values="0 0 0 0 0 0 0 0 0 0 0 0 0 0 0 0 0 0 0.25 0"/>
<feBlend mode="normal" in2="BackgroundImageFix" result="effect1_dropShadow"/>
<feBlend mode="normal" in="SourceGraphic" in2="effect1_dropShadow" result="shape"/>
</filter>
</defs>
</svg>
