<svg width="33" height="35" viewBox="0 0 33 35" fill="none" xmlns="http://www.w3.org/2000/svg">
<rect x="2" y="2" width="29" height="20" rx="1" fill="white"/>
<path d="M0 26.1696V1C0 0.447715 0.447716 0 1 0H28C28.5523 0 29 0.447716 29 1V19.5C29 20.0523 28.5523 20.5 28 20.5H5.19914C4.80034 20.5 4.43967 20.7369 4.28133 21.103L1.91781 26.5667C1.4868 27.563 0 27.2552 0 26.1696Z" fill="#5E5959"/>
<path d="M32 8H31.0811C30.5288 8 30.0811 8.44772 30.0811 9V20.5C30.0811 21.0523 29.6334 21.5 29.0811 21.5H7C6.44772 21.5 6 21.9477 6 22.5V25.5C6 26.0523 6.44771 26.5 7 26.5H28.0119C28.3863 26.5 28.7294 26.7092 28.9008 27.0421L31.111 31.3328C31.5912 32.2651 33 31.9236 33 30.8749V9C33 8.44772 32.5523 8 32 8Z" fill="#5E5959"/>
</svg>
