<svg width="456" height="456" viewBox="0 0 456 456" fill="none" xmlns="http://www.w3.org/2000/svg">
<g clip-path="url(#clip0)">
<path d="M40 0C17.9086 0 0 17.9086 0 40V415.73C0 437.821 17.9086 455.73 40 455.73H415.73C437.821 455.73 455.73 437.821 455.73 415.73V40C455.73 17.9086 437.821 0 415.73 0H40ZM265.67 247.037C257.877 298.231 219.709 327.58 170.294 327.58C114.763 327.58 69.742 282.559 69.742 227.028C69.742 171.511 114.763 126.49 170.294 126.49C197.156 126.49 220.693 136.076 237.825 152.716L208.968 181.573C199.195 171.727 185.821 166.479 170.294 166.479C137.606 166.479 111.105 194.353 111.105 227.027C111.105 259.73 137.606 286.795 170.294 286.795C197.691 286.795 218.438 273.552 224.423 247.037H170.294V206.657H265.425C266.567 213.163 267.145 219.972 267.145 227.027C267.144 234.025 266.638 240.69 265.67 247.037ZM386.419 234.517H351.186V269.735H326.16V234.517H290.927V209.476H326.16V174.243H351.186V209.476H386.419V234.517Z" fill="#DD4B39"/>
</g>
<defs>
<clipPath id="clip0">
<rect width="455.73" height="455.73" fill="white"/>
</clipPath>
</defs>
</svg>
