<svg width="100" height="100" viewBox="0 0 100 100" fill="none" xmlns="http://www.w3.org/2000/svg">
<circle cx="50" cy="50" r="48" stroke="#C4C4C4" stroke-width="4"/>
<path d="M57.2738 47.7066C57.4619 48.691 57.5961 49.6753 57.5961 50.9522C57.5961 62.0989 50.0487 70 38.6875 70C27.8097 70 19 61.2743 19 50.5C19 39.7257 27.8097 31 38.6875 31C44.0056 31 48.4372 32.9154 51.8752 36.1078L46.5302 41.189C45.0798 39.8056 42.5283 38.1828 38.6875 38.1828C31.9728 38.1828 26.4936 43.6896 26.4936 50.5C26.4936 57.3104 31.9728 62.8172 38.6875 62.8172C46.4765 62.8172 49.4042 57.2572 49.8607 54.4106H38.6875V47.7065H57.2738V47.7066ZM76.2852 48.3604V42.7H70.5429V48.3604H64.8281V54.048H70.5429V59.7084H76.2852V54.048H82V48.3604H76.2852V48.3604Z" fill="#C4C4C4"/>
</svg>
