<svg width="69" height="69" viewBox="0 0 69 69" fill="none" xmlns="http://www.w3.org/2000/svg">
<path d="M67.0311 48.7586L51.9373 42.2899C51.2925 42.0151 50.5759 41.9572 49.8954 42.1249C49.2148 42.2926 48.6072 42.6768 48.1639 43.2197L41.4795 51.3865C30.989 46.4404 22.5466 37.9979 17.6004 27.5074L25.7672 20.823C26.3112 20.3806 26.6963 19.7729 26.864 19.092C27.0318 18.4112 26.9732 17.6942 26.6971 17.0496L20.2283 1.95585C19.9253 1.26101 19.3892 0.693691 18.7127 0.351728C18.0361 0.00976422 17.2615 -0.0854149 16.5223 0.0826025L2.50664 3.31698C1.79396 3.48155 1.1581 3.88283 0.70285 4.45532C0.247598 5.02781 -0.000164173 5.73771 8.16168e-08 6.46915C8.16168e-08 41.0365 28.0178 69.0004 62.5312 69.0004C63.2629 69.0009 63.9731 68.7533 64.5459 68.298C65.1187 67.8427 65.5201 67.2067 65.6848 66.4938L68.9191 52.4781C69.0861 51.7353 68.9889 50.9576 68.6443 50.2787C68.2997 49.5998 67.7292 49.0623 67.0311 48.7586V48.7586Z" fill="#5E5959"/>
</svg>
