<svg width="2819" height="492" viewBox="0 0 2819 492" fill="none" xmlns="http://www.w3.org/2000/svg">
<path d="M509.668 187.017C506.323 176.67 497.145 169.321 486.287 168.342L338.799 154.95L280.478 18.4443C276.178 8.44022 266.384 1.96445 255.503 1.96445C244.621 1.96445 234.828 8.44022 230.527 18.4677L172.206 154.95L24.6945 168.342C13.856 169.344 4.70185 176.67 1.33726 187.017C-2.02734 197.364 1.07994 208.714 9.27895 215.868L120.763 313.64L87.8889 458.45C85.4833 469.097 89.616 480.104 98.4505 486.49C103.199 489.921 108.755 491.667 114.357 491.667C119.188 491.667 123.979 490.365 128.28 487.792L255.503 411.755L382.679 487.792C391.985 493.39 403.716 492.88 412.531 486.49C421.37 480.084 425.499 469.074 423.093 458.45L390.219 313.64L501.703 215.887C509.902 208.714 513.033 197.384 509.668 187.017V187.017Z" fill="#23BCFE"/>
<path d="M1663.67 186.017C1660.32 175.67 1651.15 168.321 1640.29 167.342L1492.8 153.95L1434.48 17.4443C1430.18 7.44022 1420.38 0.964447 1409.5 0.964447C1398.62 0.964447 1388.83 7.44022 1384.53 17.4677L1326.21 153.95L1178.69 167.342C1167.86 168.344 1158.7 175.67 1155.34 186.017C1151.97 196.364 1155.08 207.714 1163.28 214.868L1274.76 312.64L1241.89 457.45C1239.48 468.097 1243.62 479.104 1252.45 485.49C1257.2 488.921 1262.75 490.667 1268.36 490.667C1273.19 490.667 1277.98 489.365 1282.28 486.792L1409.5 410.755L1536.68 486.792C1545.99 492.39 1557.72 491.88 1566.53 485.49C1575.37 479.084 1579.5 468.074 1577.09 457.45L1544.22 312.64L1655.7 214.887C1663.9 207.714 1667.03 196.384 1663.67 186.017V186.017Z" fill="#23BCFE"/>
<path d="M1086.67 186.053C1083.32 175.706 1074.15 168.356 1063.29 167.378L915.799 153.986L857.478 17.4799C853.178 7.47578 843.384 1 832.503 1C821.621 1 811.828 7.47578 807.527 17.5033L749.206 153.986L601.694 167.378C590.856 168.38 581.702 175.706 578.337 186.053C574.973 196.4 578.08 207.749 586.279 214.903L697.763 312.675L664.889 457.486C662.483 468.133 666.616 479.139 675.45 485.525C680.199 488.956 685.755 490.703 691.357 490.703C696.188 490.703 700.979 489.401 705.28 486.827L832.503 410.791L959.679 486.827C968.985 492.426 980.716 491.915 989.531 485.525C998.37 479.12 1002.5 468.11 1000.09 457.486L967.219 312.675L1078.7 214.923C1086.9 207.749 1090.03 196.419 1086.67 186.053V186.053Z" fill="#23BCFE"/>
<path d="M2240.67 185.053C2237.32 174.706 2228.15 167.356 2217.29 166.378L2069.8 152.986L2011.48 16.4799C2007.18 6.47578 1997.38 0 1986.5 0C1975.62 0 1965.83 6.47578 1961.53 16.5033L1903.21 152.986L1755.69 166.378C1744.86 167.38 1735.7 174.706 1732.34 185.053C1728.97 195.4 1732.08 206.749 1740.28 213.903L1851.76 311.675L1818.89 456.486C1816.48 467.133 1820.62 478.139 1829.45 484.525C1834.2 487.956 1839.75 489.703 1845.36 489.703C1850.19 489.703 1854.98 488.401 1859.28 485.827L1986.5 409.791L2113.68 485.827C2122.99 491.426 2134.72 490.915 2143.53 484.525C2152.37 478.12 2156.5 467.11 2154.09 456.486L2121.22 311.675L2232.7 213.923C2240.9 206.749 2244.03 195.419 2240.67 185.053V185.053Z" fill="#23BCFE"/>
<path d="M2817.67 185.053C2814.32 174.706 2805.15 167.356 2794.29 166.378L2646.8 152.986L2588.48 16.4799C2584.18 6.47578 2574.38 0 2563.5 0C2552.62 0 2542.83 6.47578 2538.53 16.5033L2480.21 152.986L2332.69 166.378C2321.86 167.38 2312.7 174.706 2309.34 185.053C2305.97 195.4 2309.08 206.749 2317.28 213.903L2428.76 311.675L2395.89 456.486C2393.48 467.133 2397.62 478.139 2406.45 484.525C2411.2 487.956 2416.75 489.703 2422.36 489.703C2427.19 489.703 2431.98 488.401 2436.28 485.827L2563.5 409.791L2690.68 485.827C2699.99 491.426 2711.72 490.915 2720.53 484.525C2729.37 478.12 2733.5 467.11 2731.09 456.486L2698.22 311.675L2809.7 213.923C2817.9 206.749 2821.03 195.419 2817.67 185.053V185.053Z" fill="#23BCFE"/>
</svg>
