<svg width="100" height="100" viewBox="0 0 100 100" fill="none" xmlns="http://www.w3.org/2000/svg">
<circle cx="50" cy="50" r="48" stroke="#C4C4C4" stroke-width="4"/>
<path d="M68.9633 39.9687C68.9944 40.4062 68.9944 40.8438 68.9944 41.2812C68.9944 54.6249 58.8898 70 40.4214 70C34.7316 70 29.4461 68.3437 25 65.4688C25.8084 65.5625 26.5856 65.5938 27.4251 65.5938C32.1199 65.5938 36.4416 64.0001 39.8928 61.2813C35.4778 61.1875 31.7779 58.2813 30.5031 54.2812C31.125 54.3749 31.7468 54.4375 32.3998 54.4375C33.3014 54.4375 34.2031 54.3124 35.0426 54.0938C30.441 53.1562 26.9898 49.0937 26.9898 44.1875V44.0625C28.3267 44.8125 29.8814 45.2813 31.5291 45.3437C28.8241 43.5312 27.052 40.4375 27.052 36.9374C27.052 35.0625 27.5494 33.3437 28.42 31.8437C33.3635 37.9687 40.7944 41.9686 49.1269 42.4062C48.9714 41.6562 48.8781 40.875 48.8781 40.0938C48.8781 34.5312 53.3553 30 58.9207 30C61.8122 30 64.4238 31.2187 66.2583 33.1875C68.5279 32.75 70.7043 31.9062 72.632 30.75C71.8857 33.0938 70.3001 35.0626 68.217 36.3125C70.238 36.0938 72.1968 35.5312 74 34.75C72.6322 36.75 70.9221 38.5311 68.9633 39.9687V39.9687Z" fill="#C4C4C4"/>
</svg>
